<svg xmlns="http://www.w3.org/2000/svg" viewBox="0 0 472.21 551.66"><defs><style>.cls-1,.cls-2{fill:#fff;}.cls-2{fill-rule:evenodd;}</style></defs><title>Asset 1</title><g id="Layer_2" data-name="Layer 2"><g id="Background"><path class="cls-1" d="M101.14,335.53l25,60.07,25.11-60.07h7.64V403.6h-5.73q-.13-30.37.47-60l-25.26,60H124L98.81,343.8c.37,19.68.56,39.6.46,59.8H93.54V335.53ZM225.45,371H193.72v27.78H230.2v4.86H188V335.53h42v4.91H193.72V366.1h31.73V371Zm36.35-35.43,25,60.07,25.11-60.07h7.65V403.6h-5.74q-.13-30.37.47-60l-25.26,60h-4.42l-25.16-59.8c.37,19.68.56,39.6.46,59.8H254.2V335.53Z" transform="translate(-2.74 -0.37)"/><path class="cls-1" d="M81.69,424.13l1.65,8.68L88,424.13h2.52l-2,11.35H86.64l.66-3.85,1-4.73-4.67,8.58H82.26l-1.73-8.84-.71,5.19-.63,3.65H77.28l2-11.35Zm10.52,9.4a5.35,5.35,0,0,1,2-6.12,3.89,3.89,0,0,1,3.93,0,4,4,0,0,1,1.4,3.7,5.06,5.06,0,0,1-2.26,4,3.86,3.86,0,0,1-3.94-.06,3.23,3.23,0,0,1-1.15-1.53Zm2.12-4c-.77,1.31-1,4.61,1,4.57,1.7,0,2.43-1.69,2.44-3.56,0-1.22-.46-2.13-1.55-2.17a2,2,0,0,0-1.87,1.16Zm11-4.57L105,427h1.44l-.24,1.4h-1.45l-.79,4.73c-.08.54.1.86.61.88a3.23,3.23,0,0,0,.66-.07l-.13,1.48a2.34,2.34,0,0,1-2.59-.5,2.2,2.2,0,0,1-.38-1.7l.78-4.82h-1.34l.25-1.4h1.33l.36-2.05Zm2.38,8.54a5.33,5.33,0,0,1,2-6.12,3.89,3.89,0,0,1,3.93,0,4,4,0,0,1,1.4,3.7,5.06,5.06,0,0,1-2.26,4,3.86,3.86,0,0,1-3.94-.06,3.15,3.15,0,0,1-1.14-1.53Zm2.12-4c-.78,1.31-1,4.61,1,4.57,1.71,0,2.43-1.69,2.44-3.56,0-1.22-.46-2.13-1.55-2.17a2,2,0,0,0-1.86,1.16Zm12.41-.79a2.32,2.32,0,0,0-2.65.93l-1,5.78h-1.85l1.46-8.44H120l-.18,1a2.3,2.3,0,0,1,2.7-1l-.21,1.78Zm4.35,5.36a1.8,1.8,0,0,0,1.82-1.44h1.74a3.42,3.42,0,0,1-3.61,2.95c-2.36,0-3.45-1.94-3.16-4.49a5,5,0,0,1,2.2-3.75,3.58,3.58,0,0,1,4.22.4,3.32,3.32,0,0,1,.82,2.28h-1.73c0-.93-.48-1.65-1.37-1.67a1.85,1.85,0,0,0-1.7.92,5.17,5.17,0,0,0-.67,2.68q-.06,2.08,1.44,2.13Zm8.64-1.38,2.64-5.71h2l-5,9.89c-.91,1.63-1.91,2.3-3.7,1.82l.16-1.46a1.9,1.9,0,0,0,2.17-1.09l.44-.87L132.62,427h1.92l.73,5.71Zm8.7,1.38a1.81,1.81,0,0,0,1.82-1.44h1.74a3.43,3.43,0,0,1-3.62,2.95c-2.36,0-3.45-1.94-3.16-4.49a5,5,0,0,1,2.21-3.75,3.59,3.59,0,0,1,4.22.4,3.31,3.31,0,0,1,.81,2.28h-1.72a1.46,1.46,0,0,0-1.38-1.67,1.85,1.85,0,0,0-1.7.92,5.17,5.17,0,0,0-.67,2.68c0,1.39.45,2.1,1.45,2.13Zm7.29,1.35h-1.84l2.08-12h1.84l-2.08,12Zm5.16-3.62a1.84,1.84,0,0,0,1.7,2.25,2.85,2.85,0,0,0,2.2-1l.93,1a3.79,3.79,0,0,1-3.28,1.57c-2.36-.06-3.63-1.81-3.36-4.37a5.08,5.08,0,0,1,2.27-3.87,3.9,3.9,0,0,1,2-.51c2.15,0,3.24,1.84,2.95,4.17l-.1.81Zm2.33-3.46q-1.45,0-2.19,2.07h3.49c.24-1.12-.24-2.05-1.3-2.08Zm16.81,2h-4.51l-.61,3.49h5.27l-.27,1.58h-7.19l2-11.35h7.14l-.28,1.59h-5.21l-.55,3.13h4.52l-.27,1.56Zm5.32-3.38-.19,1a3.2,3.2,0,0,1,2.49-1.14c1.67,0,2.48,1.32,2.17,3.15l-.91,5.45H182.6l.92-5.48c.12-.95-.21-1.57-1.1-1.57a2.24,2.24,0,0,0-1.84,1l-1.05,6h-1.84l1.45-8.44Zm8.6,4.83a1.84,1.84,0,0,0,1.71,2.25,2.85,2.85,0,0,0,2.19-1l.93,1a3.79,3.79,0,0,1-3.28,1.57c-2.36-.06-3.63-1.81-3.35-4.37a5.07,5.07,0,0,1,2.26-3.87,3.9,3.9,0,0,1,2-.51c2.15,0,3.24,1.84,3,4.17l-.11.81Zm2.34-3.46q-1.45,0-2.19,2.07h3.48c.25-1.12-.24-2.05-1.29-2.08Zm10.11.37a2.34,2.34,0,0,0-2.66.93l-1,5.78h-1.85l1.46-8.44h1.74l-.18,1a2.3,2.3,0,0,1,2.7-1l-.21,1.78Zm5.95,6a2.79,2.79,0,0,1-4.09,0c-1.09-1.29-.9-4.27-.06-5.77a3.49,3.49,0,0,1,3.18-2.09,2.44,2.44,0,0,1,2.1,1l.28-.87H211l-1.39,8.2a4,4,0,0,1-4.2,3.57,3.88,3.88,0,0,1-2.95-1.44l1-1.11a2.37,2.37,0,0,0,1.93,1.05,2.32,2.32,0,0,0,2.41-2l.13-.59Zm-2.16-5.57a4.89,4.89,0,0,0-.88,3.12c0,1,.45,1.78,1.39,1.82a2.17,2.17,0,0,0,1.83-1l.66-3.72a1.77,1.77,0,0,0-3-.24Zm9.87,3.6,2.64-5.71h2l-5,9.89c-.91,1.63-1.92,2.3-3.7,1.82l.16-1.46a1.9,1.9,0,0,0,2.17-1.09l.44-.87L212.94,427h1.91l.74,5.71Zm14.49-8.62,1.65,8.68,4.65-8.68h2.52l-2,11.35H235l.66-3.85,1-4.73L232,435.48h-1.38l-1.73-8.84-.71,5.19-.63,3.65h-1.91l2-11.35Zm10.52,9.4a5.35,5.35,0,0,1,2-6.12,3.89,3.89,0,0,1,3.93,0,4,4,0,0,1,1.4,3.7,5.09,5.09,0,0,1-2.26,4,3.86,3.86,0,0,1-3.94-.06,3.23,3.23,0,0,1-1.15-1.53Zm2.13-4c-.78,1.31-1,4.61,1,4.57,1.71,0,2.43-1.69,2.44-3.56,0-1.22-.46-2.13-1.55-2.17a2,2,0,0,0-1.86,1.16Zm11-4.57L253.4,427h1.44l-.24,1.4h-1.45l-.79,4.73c-.08.54.1.86.61.88a3.23,3.23,0,0,0,.66-.07l-.13,1.48a2.34,2.34,0,0,1-2.59-.5,2.2,2.2,0,0,1-.38-1.7l.78-4.82H250l.24-1.4h1.34l.36-2.05Zm3.88,10.49H255.8l1.46-8.44h1.84l-1.46,8.44Zm.19-9.89a1.06,1.06,0,0,1,0-1.44,1.13,1.13,0,0,1,1.5,0,1.06,1.06,0,0,1,0,1.44,1.14,1.14,0,0,1-1.49,0Zm3.4,7.94a5.36,5.36,0,0,1,2-6.12,3.91,3.91,0,0,1,3.94,0,4,4,0,0,1,1.4,3.7,5.07,5.07,0,0,1-2.27,4,3.84,3.84,0,0,1-3.93-.06,3.23,3.23,0,0,1-1.15-1.53Zm2.12-4c-.77,1.31-1,4.61,1,4.57,1.7,0,2.43-1.69,2.44-3.56,0-1.22-.46-2.13-1.55-2.17a2,2,0,0,0-1.87,1.16ZM273.42,427l-.19,1a3.2,3.2,0,0,1,2.49-1.14c1.67,0,2.47,1.32,2.17,3.15l-.91,5.45h-1.84l.92-5.48c.12-.95-.21-1.57-1.1-1.57a2.24,2.24,0,0,0-1.84,1l-1.05,6h-1.84l1.45-8.44Zm13.2,5c-.1,1.31.73,2,2,2a2,2,0,0,0,2.3-1.57c.12-.75-.28-1.34-1.21-1.67a8.53,8.53,0,0,1-3.13-1.69,2.93,2.93,0,0,1,0-3.66,4.49,4.49,0,0,1,3.63-1.51c2.13.07,3.56,1.28,3.54,3.48h-1.91a1.61,1.61,0,0,0-1.74-1.9,2.08,2.08,0,0,0-2.27,1.63c-.09.66.33,1.21,1.33,1.56a7.86,7.86,0,0,1,3.06,1.71,3.14,3.14,0,0,1,0,3.71,4.5,4.5,0,0,1-3.68,1.48c-2.24-.06-3.87-1.3-3.85-3.59Zm15.7-3.59a6.87,6.87,0,0,1-.39,5.12,3.32,3.32,0,0,1-3.09,2.06,2.59,2.59,0,0,1-2.07-.94l-.75,4h-1.85l2-11.68h1.68l-.14.87a2.88,2.88,0,0,1,3.69-.61,2.4,2.4,0,0,1,.9,1.17Zm-2.38,5c.67-.71,1.28-3.23.56-4.41a1.18,1.18,0,0,0-1.06-.57,2.1,2.1,0,0,0-1.81,1l-.65,3.76a1.44,1.44,0,0,0,1.42,1,2,2,0,0,0,1.54-.72Zm6.66-1.55a1.84,1.84,0,0,0,1.71,2.25,2.85,2.85,0,0,0,2.19-1l.93,1a3.79,3.79,0,0,1-3.28,1.57c-2.36-.06-3.63-1.81-3.35-4.37a5.07,5.07,0,0,1,2.26-3.87,3.9,3.9,0,0,1,2-.51c2.15,0,3.24,1.84,3,4.17l-.11.81Zm2.34-3.46q-1.45,0-2.19,2.07h3.49c.23-1.12-.24-2.05-1.3-2.08Zm6.86,3.46a1.84,1.84,0,0,0,1.71,2.25,2.85,2.85,0,0,0,2.19-1l.93,1a3.79,3.79,0,0,1-3.28,1.57c-2.36-.06-3.63-1.81-3.35-4.37a5.07,5.07,0,0,1,2.26-3.87,3.9,3.9,0,0,1,2-.51c2.15,0,3.24,1.84,3,4.17l-.11.81Zm2.34-3.46c-1,0-1.71.66-2.19,2.07h3.48c.24-1.12-.24-2.05-1.29-2.08Zm5,4a6.7,6.7,0,0,1,.75-3.45,3.31,3.31,0,0,1,3.12-2,2.43,2.43,0,0,1,2,.95l.81-4.33h1.85l-2.07,12h-1.65l.12-.88a2.72,2.72,0,0,1-4.17.13,4,4,0,0,1-.76-2.37Zm1.83-.39c-.06,1.16.33,2.09,1.36,2.13a2.18,2.18,0,0,0,1.84-1l.63-3.63a1.45,1.45,0,0,0-1.42-1,1.87,1.87,0,0,0-1.7.93,5.21,5.21,0,0,0-.71,2.61Z" transform="translate(-2.74 -0.37)"/><path class="cls-2" d="M2.74,544.39,472.67,402.8l2.28,7.63L5,552l-2.29-7.64ZM367,354.19l81.35,42.47-3.67,7.07-81.35-42.47,3.67-7.07Zm-28.87,2.13,69.46-45.05,4.31,6.7-69.46,45-4.31-6.7Z" transform="translate(-2.74 -0.37)"/><polygon class="cls-1" points="355.36 75.03 116.78 75.03 236.07 314.42 355.36 75.03 355.36 75.03"/><path class="cls-2" d="M428.27,203.49,240.54,15.13,146.68,297.66l281.59-94.17ZM443,207,134.11,310.28,237.07.37,443,207Z" transform="translate(-2.74 -0.37)"/><path class="cls-2" d="M233.6,15.13,45.87,203.49l281.59,94.17L233.6,15.13ZM237.07.37,340,310.28,31.16,207,237.07.37Z" transform="translate(-2.74 -0.37)"/></g></g></svg>